<svg width="77" height="64" viewBox="0 0 57 44" fill="none" xmlns="http://www.w3.org/2000/svg">
<path fill-rule="evenodd" clip-rule="evenodd" d="M48 2H33C32.4477 2 32 2.44772 32 3V8C32 8.55228 32.4477 9 33 9H48C48.5523 9 49 8.55228 49 8V3C49 2.44772 48.5523 2 48 2ZM33 1C31.8954 1 31 1.89543 31 3V8C31 9.10457 31.8954 10 33 10H37V11V13H24V7.29784V6L23 6.82727L21.1429 8.36364L19.6749 6.74443L19 6L18.3251 6.74443L16.8571 8.36364L15 6.82727L14 6V7.29784V13H9.37528C8.51218 13 7.74644 13.5537 7.476 14.3733L1.32996 33H1V34V40C1 41.6569 2.34315 43 4 43H53C54.6569 43 56 41.6569 56 40V34V33H55.7732L51.5895 14.5575C51.3829 13.6466 50.5732 13 49.6391 13H44V11V10H48C49.1046 10 50 9.10457 50 8V3C50 1.89543 49.1046 1 48 1H33ZM24 18.3125V18V14H37H38H43H44H49.6391C50.1062 14 50.511 14.3233 50.6143 14.7788L54.7477 33H38H37H23H22H2.38299L8.42564 14.6867C8.56086 14.2768 8.94373 14 9.37528 14H14V18V18.3125H13.9961C13.72 18.3125 13.4961 18.5364 13.4961 18.8125C13.4961 19.0886 13.72 19.3125 13.9961 19.3125H24.0031C24.2793 19.3125 24.5031 19.0886 24.5031 18.8125C24.5031 18.5364 24.2793 18.3125 24.0031 18.3125H24ZM15 14V13V8.12511L16.2197 9.13415L16.9561 9.74334L17.598 9.0353L19 7.48885L20.402 9.0353L21.0439 9.74334L21.7803 9.13415L23 8.12511V13V14V17V18H22H16H15V17V14ZM38 11H43V13H38V11ZM2.05303 34H22V36C22 36.5523 22.4477 37 23 37H37C37.5523 37 38 36.5523 38 36V34H54.9746H55V40C55 41.1046 54.1046 42 53 42H4C2.89543 42 2 41.1046 2 40V34H2.05303ZM23 34H37V36H23V34ZM23 23C23.5523 23 24 23.4477 24 24V29C24 29.5523 23.5523 30 23 30H15C14.4477 30 14 29.5523 14 29V24C14 23.4477 14.4477 23 15 23H23ZM13 24C13 22.8954 13.8954 22 15 22H23C24.1046 22 25 22.8954 25 24V29C25 30.1046 24.1046 31 23 31H15C13.8954 31 13 30.1046 13 29V24ZM32.25 19C32.25 18.5858 32.5858 18.25 33 18.25H36C36.4142 18.25 36.75 18.5858 36.75 19C36.75 19.4142 36.4142 19.75 36 19.75H33C32.5858 19.75 32.25 19.4142 32.25 19ZM39 18.25C38.5858 18.25 38.25 18.5858 38.25 19C38.25 19.4142 38.5858 19.75 39 19.75H42C42.4142 19.75 42.75 19.4142 42.75 19C42.75 18.5858 42.4142 18.25 42 18.25H39ZM44.25 19C44.25 18.5858 44.5858 18.25 45 18.25H48C48.4142 18.25 48.75 18.5858 48.75 19C48.75 19.4142 48.4142 19.75 48 19.75H45C44.5858 19.75 44.25 19.4142 44.25 19ZM33 21.25C32.5858 21.25 32.25 21.5858 32.25 22C32.25 22.4142 32.5858 22.75 33 22.75H36C36.4142 22.75 36.75 22.4142 36.75 22C36.75 21.5858 36.4142 21.25 36 21.25H33ZM38.25 22C38.25 21.5858 38.5858 21.25 39 21.25H42C42.4142 21.25 42.75 21.5858 42.75 22C42.75 22.4142 42.4142 22.75 42 22.75H39C38.5858 22.75 38.25 22.4142 38.25 22ZM45 21.25C44.5858 21.25 44.25 21.5858 44.25 22C44.25 22.4142 44.5858 22.75 45 22.75H48C48.4142 22.75 48.75 22.4142 48.75 22C48.75 21.5858 48.4142 21.25 48 21.25H45ZM32.25 25C32.25 24.5858 32.5858 24.25 33 24.25H36C36.4142 24.25 36.75 24.5858 36.75 25C36.75 25.4142 36.4142 25.75 36 25.75H33C32.5858 25.75 32.25 25.4142 32.25 25ZM39 24.25C38.5858 24.25 38.25 24.5858 38.25 25C38.25 25.4142 38.5858 25.75 39 25.75H42C42.4142 25.75 42.75 25.4142 42.75 25C42.75 24.5858 42.4142 24.25 42 24.25H39ZM44.25 25C44.25 24.5858 44.5858 24.25 45 24.25H48C48.4142 24.25 48.75 24.5858 48.75 25C48.75 25.4142 48.4142 25.75 48 25.75H45C44.5858 25.75 44.25 25.4142 44.25 25ZM33 27.25C32.5858 27.25 32.25 27.5858 32.25 28C32.25 28.4142 32.5858 28.75 33 28.75H36C36.4142 28.75 36.75 28.4142 36.75 28C36.75 27.5858 36.4142 27.25 36 27.25H33ZM38.25 28C38.25 27.5858 38.5858 27.25 39 27.25H42C42.4142 27.25 42.75 27.5858 42.75 28C42.75 28.4142 42.4142 28.75 42 28.75H39C38.5858 28.75 38.25 28.4142 38.25 28ZM45 27.25C44.5858 27.25 44.25 27.5858 44.25 28C44.25 28.4142 44.5858 28.75 45 28.75H48C48.4142 28.75 48.75 28.4142 48.75 28C48.75 27.5858 48.4142 27.25 48 27.25H45ZM17 11.75C16.8619 11.75 16.75 11.8619 16.75 12C16.75 12.1381 16.8619 12.25 17 12.25H21C21.1381 12.25 21.25 12.1381 21.25 12C21.25 11.8619 21.1381 11.75 21 11.75H17ZM16.75 14C16.75 13.8619 16.8619 13.75 17 13.75H21C21.1381 13.75 21.25 13.8619 21.25 14C21.25 14.1381 21.1381 14.25 21 14.25H17C16.8619 14.25 16.75 14.1381 16.75 14ZM17 15.75C16.8619 15.75 16.75 15.8619 16.75 16C16.75 16.1381 16.8619 16.25 17 16.25H21C21.1381 16.25 21.25 16.1381 21.25 16C21.25 15.8619 21.1381 15.75 21 15.75H17Z" fill="#5D919C"/>
<path d="M37 10H37.25V9.75H37V10ZM37 13V13.25H37.25V13H37ZM24 13H23.75V13.25H24V13ZM24 6H24.25V5.46872L23.8406 5.80737L24 6ZM23 6.82727L23.1594 7.0199L23.1594 7.0199L23 6.82727ZM21.1429 8.36364L20.9576 8.53155L21.1181 8.70856L21.3022 8.55626L21.1429 8.36364ZM19.6749 6.74443L19.4897 6.91234L19.4897 6.91234L19.6749 6.74443ZM19 6L19.1852 5.83209L19 5.62779L18.8148 5.83209L19 6ZM18.3251 6.74443L18.5103 6.91234L18.5103 6.91234L18.3251 6.74443ZM16.8571 8.36364L16.6978 8.55626L16.8819 8.70856L17.0424 8.53155L16.8571 8.36364ZM15 6.82727L14.8406 7.0199L14.8406 7.0199L15 6.82727ZM14 6L14.1594 5.80737L13.75 5.46872V6H14ZM14 13V13.25H14.25V13H14ZM7.476 14.3733L7.71341 14.4516L7.71341 14.4516L7.476 14.3733ZM1.32996 33V33.25H1.51073L1.56737 33.0783L1.32996 33ZM1 33V32.75H0.75V33H1ZM56 33H56.25V32.75H56V33ZM55.7732 33L55.5293 33.0553L55.5735 33.25H55.7732V33ZM51.5895 14.5575L51.3457 14.6129L51.3457 14.6129L51.5895 14.5575ZM44 13H43.75V13.25H44V13ZM44 10V9.75H43.75V10H44ZM24 18.3125H23.75V18.5625H24V18.3125ZM24 14V13.75H23.75V14H24ZM50.6143 14.7788L50.8581 14.7235L50.8581 14.7235L50.6143 14.7788ZM54.7477 33V33.25H55.0608L54.9916 32.9447L54.7477 33ZM2.38299 33L2.14558 32.9217L2.03724 33.25H2.38299V33ZM8.42564 14.6867L8.18823 14.6083L8.18823 14.6083L8.42564 14.6867ZM14 14H14.25V13.75H14V14ZM14 18.3125V18.5625H14.25V18.3125H14ZM15 8.12511L15.1594 7.93248L14.75 7.59383V8.12511H15ZM16.2197 9.13415L16.3791 8.94152L16.3791 8.94152L16.2197 9.13415ZM16.9561 9.74334L16.7967 9.93596L16.9808 10.0883L17.1413 9.91125L16.9561 9.74334ZM17.598 9.0353L17.4128 8.86738L17.4128 8.86738L17.598 9.0353ZM19 7.48885L19.1852 7.32094L19 7.11664L18.8148 7.32094L19 7.48885ZM20.402 9.0353L20.2168 9.20321L20.2168 9.20321L20.402 9.0353ZM21.0439 9.74334L20.8587 9.91125L21.0192 10.0883L21.2033 9.93596L21.0439 9.74334ZM21.7803 9.13415L21.6209 8.94152L21.6209 8.94152L21.7803 9.13415ZM23 8.12511H23.25V7.59383L22.8406 7.93248L23 8.12511ZM23 18V18.25H23.25V18H23ZM15 18H14.75V18.25H15V18ZM43 11H43.25V10.75H43V11ZM38 11V10.75H37.75V11H38ZM43 13V13.25H43.25V13H43ZM38 13H37.75V13.25H38V13ZM22 34H22.25V33.75H22V34ZM38 34V33.75H37.75V34H38ZM55 34H55.25V33.75H55V34ZM2 34V33.75H1.75V34H2ZM37 34H37.25V33.75H37V34ZM23 34V33.75H22.75V34H23ZM37 36V36.25H37.25V36H37ZM23 36H22.75V36.25H23V36ZM33 2.25H48V1.75H33V2.25ZM32.25 3C32.25 2.58579 32.5858 2.25 33 2.25V1.75C32.3096 1.75 31.75 2.30964 31.75 3H32.25ZM32.25 8V3H31.75V8H32.25ZM33 8.75C32.5858 8.75 32.25 8.41421 32.25 8H31.75C31.75 8.69036 32.3096 9.25 33 9.25V8.75ZM48 8.75H33V9.25H48V8.75ZM48.75 8C48.75 8.41421 48.4142 8.75 48 8.75V9.25C48.6904 9.25 49.25 8.69036 49.25 8H48.75ZM48.75 3V8H49.25V3H48.75ZM48 2.25C48.4142 2.25 48.75 2.58579 48.75 3H49.25C49.25 2.30964 48.6904 1.75 48 1.75V2.25ZM31.25 3C31.25 2.0335 32.0335 1.25 33 1.25V0.75C31.7574 0.75 30.75 1.75736 30.75 3H31.25ZM31.25 8V3H30.75V8H31.25ZM33 9.75C32.0335 9.75 31.25 8.9665 31.25 8H30.75C30.75 9.24264 31.7574 10.25 33 10.25V9.75ZM37 9.75H33V10.25H37V9.75ZM37.25 11V10H36.75V11H37.25ZM37.25 13V11H36.75V13H37.25ZM24 13.25H37V12.75H24V13.25ZM23.75 7.29784V13H24.25V7.29784H23.75ZM23.75 6V7.29784H24.25V6H23.75ZM23.1594 7.0199L24.1594 6.19263L23.8406 5.80737L22.8406 6.63464L23.1594 7.0199ZM21.3022 8.55626L23.1594 7.0199L22.8406 6.63464L20.9835 8.17101L21.3022 8.55626ZM19.4897 6.91234L20.9576 8.53155L21.3281 8.19572L19.8601 6.57651L19.4897 6.91234ZM18.8148 6.16791L19.4897 6.91234L19.8601 6.57651L19.1852 5.83209L18.8148 6.16791ZM18.5103 6.91234L19.1852 6.16791L18.8148 5.83209L18.1399 6.57651L18.5103 6.91234ZM17.0424 8.53155L18.5103 6.91234L18.1399 6.57651L16.6719 8.19572L17.0424 8.53155ZM14.8406 7.0199L16.6978 8.55626L17.0165 8.17101L15.1594 6.63464L14.8406 7.0199ZM13.8406 6.19263L14.8406 7.0199L15.1594 6.63464L14.1594 5.80737L13.8406 6.19263ZM14.25 7.29784V6H13.75V7.29784H14.25ZM14.25 13V7.29784H13.75V13H14.25ZM9.37528 13.25H14V12.75H9.37528V13.25ZM7.71341 14.4516C7.95005 13.7345 8.62006 13.25 9.37528 13.25V12.75C8.40429 12.75 7.54284 13.3729 7.23859 14.295L7.71341 14.4516ZM1.56737 33.0783L7.71341 14.4516L7.23859 14.295L1.09255 32.9217L1.56737 33.0783ZM1 33.25H1.32996V32.75H1V33.25ZM1.25 34V33H0.75V34H1.25ZM1.25 40V34H0.75V40H1.25ZM4 42.75C2.48122 42.75 1.25 41.5188 1.25 40H0.75C0.75 41.7949 2.20507 43.25 4 43.25V42.75ZM53 42.75H4V43.25H53V42.75ZM55.75 40C55.75 41.5188 54.5188 42.75 53 42.75V43.25C54.7949 43.25 56.25 41.7949 56.25 40H55.75ZM55.75 34V40H56.25V34H55.75ZM55.75 33V34H56.25V33H55.75ZM55.7732 33.25H56V32.75H55.7732V33.25ZM51.3457 14.6129L55.5293 33.0553L56.017 32.9447L51.8334 14.5022L51.3457 14.6129ZM49.6391 13.25C50.4564 13.25 51.1649 13.8158 51.3457 14.6129L51.8334 14.5022C51.6009 13.4774 50.69 12.75 49.6391 12.75V13.25ZM44 13.25H49.6391V12.75H44V13.25ZM43.75 11V13H44.25V11H43.75ZM43.75 10V11H44.25V10H43.75ZM48 9.75H44V10.25H48V9.75ZM49.75 8C49.75 8.9665 48.9665 9.75 48 9.75V10.25C49.2426 10.25 50.25 9.24264 50.25 8H49.75ZM49.75 3V8H50.25V3H49.75ZM48 1.25C48.9665 1.25 49.75 2.0335 49.75 3H50.25C50.25 1.75736 49.2426 0.75 48 0.75V1.25ZM33 1.25H48V0.75H33V1.25ZM23.75 18V18.3125H24.25V18H23.75ZM23.75 14V18H24.25V14H23.75ZM37 13.75H24V14.25H37V13.75ZM38 13.75H37V14.25H38V13.75ZM43 13.75H38V14.25H43V13.75ZM44 13.75H43V14.25H44V13.75ZM49.6391 13.75H44V14.25H49.6391V13.75ZM50.8581 14.7235C50.729 14.1541 50.2229 13.75 49.6391 13.75V14.25C49.9894 14.25 50.293 14.4925 50.3705 14.8341L50.8581 14.7235ZM54.9916 32.9447L50.8581 14.7235L50.3705 14.8341L54.5039 33.0553L54.9916 32.9447ZM38 33.25H54.7477V32.75H38V33.25ZM37 33.25H38V32.75H37V33.25ZM23 33.25H37V32.75H23V33.25ZM22 33.25H23V32.75H22V33.25ZM2.38299 33.25H22V32.75H2.38299V33.25ZM8.18823 14.6083L2.14558 32.9217L2.6204 33.0783L8.66305 14.765L8.18823 14.6083ZM9.37528 13.75C8.83584 13.75 8.35726 14.0961 8.18823 14.6083L8.66305 14.765C8.76446 14.4576 9.05161 14.25 9.37528 14.25V13.75ZM14 13.75H9.37528V14.25H14V13.75ZM14.25 18V14H13.75V18H14.25ZM14.25 18.3125V18H13.75V18.3125H14.25ZM13.9961 18.5625H14V18.0625H13.9961V18.5625ZM13.7461 18.8125C13.7461 18.6744 13.858 18.5625 13.9961 18.5625V18.0625C13.5819 18.0625 13.2461 18.3983 13.2461 18.8125H13.7461ZM13.9961 19.0625C13.858 19.0625 13.7461 18.9506 13.7461 18.8125H13.2461C13.2461 19.2267 13.5819 19.5625 13.9961 19.5625V19.0625ZM24.0031 19.0625H13.9961V19.5625H24.0031V19.0625ZM24.2531 18.8125C24.2531 18.9506 24.1412 19.0625 24.0031 19.0625V19.5625C24.4173 19.5625 24.7531 19.2267 24.7531 18.8125H24.2531ZM24.0031 18.5625C24.1412 18.5625 24.2531 18.6744 24.2531 18.8125H24.7531C24.7531 18.3983 24.4173 18.0625 24.0031 18.0625V18.5625ZM24 18.5625H24.0031V18.0625H24V18.5625ZM14.75 13V14H15.25V13H14.75ZM14.75 8.12511V13H15.25V8.12511H14.75ZM16.3791 8.94152L15.1594 7.93248L14.8406 8.31774L16.0604 9.32678L16.3791 8.94152ZM17.1155 9.55071L16.3791 8.94152L16.0604 9.32678L16.7967 9.93596L17.1155 9.55071ZM17.4128 8.86738L16.7709 9.57542L17.1413 9.91125L17.7832 9.20321L17.4128 8.86738ZM18.8148 7.32094L17.4128 8.86738L17.7832 9.20321L19.1852 7.65677L18.8148 7.32094ZM20.5872 8.86738L19.1852 7.32094L18.8148 7.65677L20.2168 9.20321L20.5872 8.86738ZM21.2291 9.57542L20.5872 8.86738L20.2168 9.20321L20.8587 9.91125L21.2291 9.57542ZM21.6209 8.94152L20.8845 9.55071L21.2033 9.93596L21.9396 9.32678L21.6209 8.94152ZM22.8406 7.93248L21.6209 8.94152L21.9396 9.32678L23.1594 8.31774L22.8406 7.93248ZM23.25 13V8.12511H22.75V13H23.25ZM23.25 14V13H22.75V14H23.25ZM23.25 17V14H22.75V17H23.25ZM23.25 18V17H22.75V18H23.25ZM22 18.25H23V17.75H22V18.25ZM16 18.25H22V17.75H16V18.25ZM15 18.25H16V17.75H15V18.25ZM14.75 17V18H15.25V17H14.75ZM14.75 14V17H15.25V14H14.75ZM43 10.75H38V11.25H43V10.75ZM43.25 13V11H42.75V13H43.25ZM38 13.25H43V12.75H38V13.25ZM37.75 11V13H38.25V11H37.75ZM22 33.75H2.05303V34.25H22V33.75ZM22.25 36V34H21.75V36H22.25ZM23 36.75C22.5858 36.75 22.25 36.4142 22.25 36H21.75C21.75 36.6904 22.3096 37.25 23 37.25V36.75ZM37 36.75H23V37.25H37V36.75ZM37.75 36C37.75 36.4142 37.4142 36.75 37 36.75V37.25C37.6904 37.25 38.25 36.6904 38.25 36H37.75ZM37.75 34V36H38.25V34H37.75ZM54.9746 33.75H38V34.25H54.9746V33.75ZM55 33.75H54.9746V34.25H55V33.75ZM55.25 40V34H54.75V40H55.25ZM53 42.25C54.2426 42.25 55.25 41.2426 55.25 40H54.75C54.75 40.9665 53.9665 41.75 53 41.75V42.25ZM4 42.25H53V41.75H4V42.25ZM1.75 40C1.75 41.2426 2.75736 42.25 4 42.25V41.75C3.0335 41.75 2.25 40.9665 2.25 40H1.75ZM1.75 34V40H2.25V34H1.75ZM2.05303 33.75H2V34.25H2.05303V33.75ZM37 33.75H23V34.25H37V33.75ZM37.25 36V34H36.75V36H37.25ZM23 36.25H37V35.75H23V36.25ZM22.75 34V36H23.25V34H22.75ZM24.25 24C24.25 23.3096 23.6904 22.75 23 22.75V23.25C23.4142 23.25 23.75 23.5858 23.75 24H24.25ZM24.25 29V24H23.75V29H24.25ZM23 30.25C23.6904 30.25 24.25 29.6904 24.25 29H23.75C23.75 29.4142 23.4142 29.75 23 29.75V30.25ZM15 30.25H23V29.75H15V30.25ZM13.75 29C13.75 29.6904 14.3096 30.25 15 30.25V29.75C14.5858 29.75 14.25 29.4142 14.25 29H13.75ZM13.75 24V29H14.25V24H13.75ZM15 22.75C14.3096 22.75 13.75 23.3096 13.75 24H14.25C14.25 23.5858 14.5858 23.25 15 23.25V22.75ZM23 22.75H15V23.25H23V22.75ZM15 21.75C13.7574 21.75 12.75 22.7574 12.75 24H13.25C13.25 23.0335 14.0335 22.25 15 22.25V21.75ZM23 21.75H15V22.25H23V21.75ZM25.25 24C25.25 22.7574 24.2426 21.75 23 21.75V22.25C23.9665 22.25 24.75 23.0335 24.75 24H25.25ZM25.25 29V24H24.75V29H25.25ZM23 31.25C24.2426 31.25 25.25 30.2426 25.25 29H24.75C24.75 29.9665 23.9665 30.75 23 30.75V31.25ZM15 31.25H23V30.75H15V31.25ZM12.75 29C12.75 30.2426 13.7574 31.25 15 31.25V30.75C14.0335 30.75 13.25 29.9665 13.25 29H12.75ZM12.75 24V29H13.25V24H12.75ZM33 18C32.4477 18 32 18.4477 32 19H32.5C32.5 18.7239 32.7239 18.5 33 18.5V18ZM36 18H33V18.5H36V18ZM37 19C37 18.4477 36.5523 18 36 18V18.5C36.2761 18.5 36.5 18.7239 36.5 19H37ZM36 20C36.5523 20 37 19.5523 37 19H36.5C36.5 19.2761 36.2761 19.5 36 19.5V20ZM33 20H36V19.5H33V20ZM32 19C32 19.5523 32.4477 20 33 20V19.5C32.7239 19.5 32.5 19.2761 32.5 19H32ZM38.5 19C38.5 18.7239 38.7239 18.5 39 18.5V18C38.4477 18 38 18.4477 38 19H38.5ZM39 19.5C38.7239 19.5 38.5 19.2761 38.5 19H38C38 19.5523 38.4477 20 39 20V19.5ZM42 19.5H39V20H42V19.5ZM42.5 19C42.5 19.2761 42.2761 19.5 42 19.5V20C42.5523 20 43 19.5523 43 19H42.5ZM42 18.5C42.2761 18.5 42.5 18.7239 42.5 19H43C43 18.4477 42.5523 18 42 18V18.5ZM39 18.5H42V18H39V18.5ZM45 18C44.4477 18 44 18.4477 44 19H44.5C44.5 18.7239 44.7239 18.5 45 18.5V18ZM48 18H45V18.5H48V18ZM49 19C49 18.4477 48.5523 18 48 18V18.5C48.2761 18.5 48.5 18.7239 48.5 19H49ZM48 20C48.5523 20 49 19.5523 49 19H48.5C48.5 19.2761 48.2761 19.5 48 19.5V20ZM45 20H48V19.5H45V20ZM44 19C44 19.5523 44.4477 20 45 20V19.5C44.7239 19.5 44.5 19.2761 44.5 19H44ZM32.5 22C32.5 21.7239 32.7239 21.5 33 21.5V21C32.4477 21 32 21.4477 32 22H32.5ZM33 22.5C32.7239 22.5 32.5 22.2761 32.5 22H32C32 22.5523 32.4477 23 33 23V22.5ZM36 22.5H33V23H36V22.5ZM36.5 22C36.5 22.2761 36.2761 22.5 36 22.5V23C36.5523 23 37 22.5523 37 22H36.5ZM36 21.5C36.2761 21.5 36.5 21.7239 36.5 22H37C37 21.4477 36.5523 21 36 21V21.5ZM33 21.5H36V21H33V21.5ZM39 21C38.4477 21 38 21.4477 38 22H38.5C38.5 21.7239 38.7239 21.5 39 21.5V21ZM42 21H39V21.5H42V21ZM43 22C43 21.4477 42.5523 21 42 21V21.5C42.2761 21.5 42.5 21.7239 42.5 22H43ZM42 23C42.5523 23 43 22.5523 43 22H42.5C42.5 22.2761 42.2761 22.5 42 22.5V23ZM39 23H42V22.5H39V23ZM38 22C38 22.5523 38.4477 23 39 23V22.5C38.7239 22.5 38.5 22.2761 38.5 22H38ZM44.5 22C44.5 21.7239 44.7239 21.5 45 21.5V21C44.4477 21 44 21.4477 44 22H44.5ZM45 22.5C44.7239 22.5 44.5 22.2761 44.5 22H44C44 22.5523 44.4477 23 45 23V22.5ZM48 22.5H45V23H48V22.5ZM48.5 22C48.5 22.2761 48.2761 22.5 48 22.5V23C48.5523 23 49 22.5523 49 22H48.5ZM48 21.5C48.2761 21.5 48.5 21.7239 48.5 22H49C49 21.4477 48.5523 21 48 21V21.5ZM45 21.5H48V21H45V21.5ZM33 24C32.4477 24 32 24.4477 32 25H32.5C32.5 24.7239 32.7239 24.5 33 24.5V24ZM36 24H33V24.5H36V24ZM37 25C37 24.4477 36.5523 24 36 24V24.5C36.2761 24.5 36.5 24.7239 36.5 25H37ZM36 26C36.5523 26 37 25.5523 37 25H36.5C36.5 25.2761 36.2761 25.5 36 25.5V26ZM33 26H36V25.5H33V26ZM32 25C32 25.5523 32.4477 26 33 26V25.5C32.7239 25.5 32.5 25.2761 32.5 25H32ZM38.5 25C38.5 24.7239 38.7239 24.5 39 24.5V24C38.4477 24 38 24.4477 38 25H38.5ZM39 25.5C38.7239 25.5 38.5 25.2761 38.5 25H38C38 25.5523 38.4477 26 39 26V25.5ZM42 25.5H39V26H42V25.5ZM42.5 25C42.5 25.2761 42.2761 25.5 42 25.5V26C42.5523 26 43 25.5523 43 25H42.5ZM42 24.5C42.2761 24.5 42.5 24.7239 42.5 25H43C43 24.4477 42.5523 24 42 24V24.5ZM39 24.5H42V24H39V24.5ZM45 24C44.4477 24 44 24.4477 44 25H44.5C44.5 24.7239 44.7239 24.5 45 24.5V24ZM48 24H45V24.5H48V24ZM49 25C49 24.4477 48.5523 24 48 24V24.5C48.2761 24.5 48.5 24.7239 48.5 25H49ZM48 26C48.5523 26 49 25.5523 49 25H48.5C48.5 25.2761 48.2761 25.5 48 25.5V26ZM45 26H48V25.5H45V26ZM44 25C44 25.5523 44.4477 26 45 26V25.5C44.7239 25.5 44.5 25.2761 44.5 25H44ZM32.5 28C32.5 27.7239 32.7239 27.5 33 27.5V27C32.4477 27 32 27.4477 32 28H32.5ZM33 28.5C32.7239 28.5 32.5 28.2761 32.5 28H32C32 28.5523 32.4477 29 33 29V28.5ZM36 28.5H33V29H36V28.5ZM36.5 28C36.5 28.2761 36.2761 28.5 36 28.5V29C36.5523 29 37 28.5523 37 28H36.5ZM36 27.5C36.2761 27.5 36.5 27.7239 36.5 28H37C37 27.4477 36.5523 27 36 27V27.5ZM33 27.5H36V27H33V27.5ZM39 27C38.4477 27 38 27.4477 38 28H38.5C38.5 27.7239 38.7239 27.5 39 27.5V27ZM42 27H39V27.5H42V27ZM43 28C43 27.4477 42.5523 27 42 27V27.5C42.2761 27.5 42.5 27.7239 42.5 28H43ZM42 29C42.5523 29 43 28.5523 43 28H42.5C42.5 28.2761 42.2761 28.5 42 28.5V29ZM39 29H42V28.5H39V29ZM38 28C38 28.5523 38.4477 29 39 29V28.5C38.7239 28.5 38.5 28.2761 38.5 28H38ZM44.5 28C44.5 27.7239 44.7239 27.5 45 27.5V27C44.4477 27 44 27.4477 44 28H44.5ZM45 28.5C44.7239 28.5 44.5 28.2761 44.5 28H44C44 28.5523 44.4477 29 45 29V28.5ZM48 28.5H45V29H48V28.5ZM48.5 28C48.5 28.2761 48.2761 28.5 48 28.5V29C48.5523 29 49 28.5523 49 28H48.5ZM48 27.5C48.2761 27.5 48.5 27.7239 48.5 28H49C49 27.4477 48.5523 27 48 27V27.5ZM45 27.5H48V27H45V27.5ZM17 12V11.5C16.7239 11.5 16.5 11.7239 16.5 12H17ZM17 12H16.5C16.5 12.2761 16.7239 12.5 17 12.5V12ZM21 12H17V12.5H21V12ZM21 12V12.5C21.2761 12.5 21.5 12.2761 21.5 12H21ZM21 12H21.5C21.5 11.7239 21.2761 11.5 21 11.5V12ZM17 12H21V11.5H17V12ZM17 13.5C16.7239 13.5 16.5 13.7239 16.5 14H17V13.5ZM21 13.5H17V14H21V13.5ZM21.5 14C21.5 13.7239 21.2761 13.5 21 13.5V14H21.5ZM21 14.5C21.2761 14.5 21.5 14.2761 21.5 14H21V14.5ZM17 14.5H21V14H17V14.5ZM16.5 14C16.5 14.2761 16.7239 14.5 17 14.5V14H16.5ZM17 16V15.5C16.7239 15.5 16.5 15.7239 16.5 16H17ZM17 16H16.5C16.5 16.2761 16.7239 16.5 17 16.5V16ZM21 16H17V16.5H21V16ZM21 16V16.5C21.2761 16.5 21.5 16.2761 21.5 16H21ZM21 16H21.5C21.5 15.7239 21.2761 15.5 21 15.5V16ZM17 16H21V15.5H17V16Z" fill="#5D919C"/>
</svg>
